<svg xmlns="http://www.w3.org/2000/svg" viewBox="0 0 24 24" fill="none" stroke="#000088" stroke-width="0.2">
  <circle cx="12" cy="12" r="9" stroke-width="0.4" />
  <circle cx="12" cy="12" r="1.5" stroke-width="0.3" fill="#000088" />
  
  <!-- 24 Spokes -->
  <g stroke-width="0.2">
    <line x1="12" y1="12" x2="12" y2="3" />
    <line x1="12" y1="12" x2="14.33" y2="3.3" />
    <line x1="12" y1="12" x2="16.5" y2="4.2" />
    <line x1="12" y1="12" x2="18.36" y2="5.64" />
    <line x1="12" y1="12" x2="19.8" y2="7.5" />
    <line x1="12" y1="12" x2="20.7" y2="9.67" />
    <line x1="12" y1="12" x2="21" y2="12" />
    <line x1="12" y1="12" x2="20.7" y2="14.33" />
    <line x1="12" y1="12" x2="19.8" y2="16.5" />
    <line x1="12" y1="12" x2="18.36" y2="18.36" />
    <line x1="12" y1="12" x2="16.5" y2="19.8" />
    <line x1="12" y1="12" x2="14.33" y2="20.7" />
    <line x1="12" y1="12" x2="12" y2="21" />
    <line x1="12" y1="12" x2="9.67" y2="20.7" />
    <line x1="12" y1="12" x2="7.5" y2="19.8" />
    <line x1="12" y1="12" x2="5.64" y2="18.36" />
    <line x1="12" y1="12" x2="4.2" y2="16.5" />
    <line x1="12" y1="12" x2="3.3" y2="14.33" />
    <line x1="12" y1="12" x2="3" y2="12" />
    <line x1="12" y1="12" x2="3.3" y2="9.67" />
    <line x1="12" y1="12" x2="4.2" y2="7.5" />
    <line x1="12" y1="12" x2="5.64" y2="5.64" />
    <line x1="12" y1="12" x2="7.5" y2="4.2" />
    <line x1="12" y1="12" x2="9.67" y2="3.3" />
  </g>
</svg>